<svg width="43" height="55" viewBox="0 0 43 55" fill="none" xmlns="http://www.w3.org/2000/svg">
<path d="M33.0312 18.2812C32.7396 18.2812 32.4896 18.1354 32.2812 17.8438C32.0938 17.5521 31.7604 16.9167 31.2812 15.9375C30.8021 14.9375 30.0938 13.9583 29.1562 13C28.2188 12.0208 27.1667 11.2188 26 10.5938C23.75 9.40625 20.9479 8.8125 17.5938 8.8125C14.4688 8.8125 12.0729 9.47917 10.4062 10.8125C8.96875 11.9375 8.25 13.375 8.25 15.125C8.25 17.3333 8.9375 19.1562 10.3125 20.5938C12 22.3646 14.6979 23.7396 18.4062 24.7188C22.1354 25.6771 25.125 26.6771 27.375 27.7188C29.6458 28.7396 31.4792 29.8958 32.875 31.1875C35.5625 33.625 36.9062 36.7292 36.9062 40.5C36.9062 44.8542 35.3542 48.3125 32.25 50.875C29.1042 53.4375 24.7812 54.7188 19.2812 54.7188C13.6771 54.7188 8.70833 53.7083 4.375 51.6875L0.84375 50.0312V38.9688C0.84375 36.4271 1.28125 35.1562 2.15625 35.1562C2.76042 35.1562 3.15625 35.7812 3.34375 37.0312C3.78125 40.9896 5.64583 44.2604 8.9375 46.8438C11.9583 49.1979 15.3333 50.375 19.0625 50.375C26.375 50.375 30.0312 47.8958 30.0312 42.9375C30.0312 40.6667 29.3125 38.7604 27.875 37.2188C25.9375 35.1562 22.6771 33.5938 18.0938 32.5312C12.5104 31.2604 8.30208 29.2708 5.46875 26.5625C2.88542 24.1042 1.59375 21.1771 1.59375 17.7812C1.59375 14.0938 2.9375 11.0104 5.625 8.53125C8.70833 5.67708 12.9896 4.25 18.4688 4.25C22.0729 4.25 25.0417 4.72917 27.375 5.6875C27.8125 5.875 28.0521 5.96875 28.0938 5.96875C28.1562 5.96875 28.2292 5.95833 28.3125 5.9375C28.4167 5.91667 28.5312 5.85417 28.6562 5.75C28.8646 5.60417 29.1458 5.29167 29.5 4.8125C30.1667 3.9375 30.6771 3.5 31.0312 3.5C31.8646 3.5 32.3021 4.04167 32.3438 5.125C32.4479 8.16667 32.6875 10.4688 33.0625 12.0312C33.6667 14.5521 33.9688 16.2292 33.9688 17.0625C33.9688 17.875 33.6562 18.2812 33.0312 18.2812Z" fill="#101315"/>
<path d="M36.0312 16.2812C35.7396 16.2812 35.4896 16.1354 35.2812 15.8438C35.0938 15.5521 34.7604 14.9167 34.2812 13.9375C33.8021 12.9375 33.0938 11.9583 32.1562 11C31.2188 10.0208 30.1667 9.21875 29 8.59375C26.75 7.40625 23.9479 6.8125 20.5938 6.8125C17.4688 6.8125 15.0729 7.47917 13.4062 8.8125C11.9688 9.9375 11.25 11.375 11.25 13.125C11.25 15.3333 11.9375 17.1562 13.3125 18.5938C15 20.3646 17.6979 21.7396 21.4062 22.7188C25.1354 23.6771 28.125 24.6771 30.375 25.7188C32.6458 26.7396 34.4792 27.8958 35.875 29.1875C38.5625 31.625 39.9062 34.7292 39.9062 38.5C39.9062 42.8542 38.3542 46.3125 35.25 48.875C32.1042 51.4375 27.7812 52.7188 22.2812 52.7188C16.6771 52.7188 11.7083 51.7083 7.375 49.6875L3.84375 48.0312V36.9688C3.84375 34.4271 4.28125 33.1562 5.15625 33.1562C5.76042 33.1562 6.15625 33.7812 6.34375 35.0312C6.78125 38.9896 8.64583 42.2604 11.9375 44.8438C14.9583 47.1979 18.3333 48.375 22.0625 48.375C29.375 48.375 33.0312 45.8958 33.0312 40.9375C33.0312 38.6667 32.3125 36.7604 30.875 35.2188C28.9375 33.1562 25.6771 31.5938 21.0938 30.5312C15.5104 29.2604 11.3021 27.2708 8.46875 24.5625C5.88542 22.1042 4.59375 19.1771 4.59375 15.7812C4.59375 12.0938 5.9375 9.01042 8.625 6.53125C11.7083 3.67708 15.9896 2.25 21.4688 2.25C25.0729 2.25 28.0417 2.72917 30.375 3.6875C30.8125 3.875 31.0521 3.96875 31.0938 3.96875C31.1562 3.96875 31.2292 3.95833 31.3125 3.9375C31.4167 3.91667 31.5312 3.85417 31.6562 3.75C31.8646 3.60417 32.1458 3.29167 32.5 2.8125C33.1667 1.9375 33.6771 1.5 34.0312 1.5C34.8646 1.5 35.3021 2.04167 35.3438 3.125C35.4479 6.16667 35.6875 8.46875 36.0625 10.0312C36.6667 12.5521 36.9688 14.2292 36.9688 15.0625C36.9688 15.875 36.6562 16.2812 36.0312 16.2812Z" fill="#2C3438"/>
<path d="M39.0312 15.2812C38.7396 15.2812 38.4896 15.1354 38.2812 14.8438C38.0938 14.5521 37.7604 13.9167 37.2812 12.9375C36.8021 11.9375 36.0938 10.9583 35.1562 10C34.2188 9.02083 33.1667 8.21875 32 7.59375C29.75 6.40625 26.9479 5.8125 23.5938 5.8125C20.4688 5.8125 18.0729 6.47917 16.4062 7.8125C14.9688 8.9375 14.25 10.375 14.25 12.125C14.25 14.3333 14.9375 16.1562 16.3125 17.5938C18 19.3646 20.6979 20.7396 24.4062 21.7188C28.1354 22.6771 31.125 23.6771 33.375 24.7188C35.6458 25.7396 37.4792 26.8958 38.875 28.1875C41.5625 30.625 42.9062 33.7292 42.9062 37.5C42.9062 41.8542 41.3542 45.3125 38.25 47.875C35.1042 50.4375 30.7812 51.7188 25.2812 51.7188C19.6771 51.7188 14.7083 50.7083 10.375 48.6875L6.84375 47.0312V35.9688C6.84375 33.4271 7.28125 32.1562 8.15625 32.1562C8.76042 32.1562 9.15625 32.7812 9.34375 34.0312C9.78125 37.9896 11.6458 41.2604 14.9375 43.8438C17.9583 46.1979 21.3333 47.375 25.0625 47.375C32.375 47.375 36.0312 44.8958 36.0312 39.9375C36.0312 37.6667 35.3125 35.7604 33.875 34.2188C31.9375 32.1562 28.6771 30.5938 24.0938 29.5312C18.5104 28.2604 14.3021 26.2708 11.4688 23.5625C8.88542 21.1042 7.59375 18.1771 7.59375 14.7812C7.59375 11.0938 8.9375 8.01042 11.625 5.53125C14.7083 2.67708 18.9896 1.25 24.4688 1.25C28.0729 1.25 31.0417 1.72917 33.375 2.6875C33.8125 2.875 34.0521 2.96875 34.0938 2.96875C34.1562 2.96875 34.2292 2.95833 34.3125 2.9375C34.4167 2.91667 34.5312 2.85417 34.6562 2.75C34.8646 2.60417 35.1458 2.29167 35.5 1.8125C36.1667 0.9375 36.6771 0.5 37.0312 0.5C37.8646 0.5 38.3021 1.04167 38.3438 2.125C38.4479 5.16667 38.6875 7.46875 39.0625 9.03125C39.6667 11.5521 39.9688 13.2292 39.9688 14.0625C39.9688 14.875 39.6562 15.2812 39.0312 15.2812Z" fill="#4C5A61"/>
</svg>
